<svg id="visual" viewBox="0 0 960 200" width="960" height="200" xmlns="http://www.w3.org/2000/svg" xmlns:xlink="http://www.w3.org/1999/xlink" version="1.1"><rect x="0" y="0" width="960" height="200" fill="#111112"></rect><path d="M0 41L22.8 44.5C45.7 48 91.3 55 137 55.8C182.7 56.7 228.3 51.3 274 53.2C319.7 55 365.3 64 411.2 65.2C457 66.3 503 59.7 548.8 62.5C594.7 65.3 640.3 77.7 686 82C731.7 86.3 777.3 82.7 823 75.5C868.7 68.3 914.3 57.7 937.2 52.3L960 47L960 201L937.2 201C914.3 201 868.7 201 823 201C777.3 201 731.7 201 686 201C640.3 201 594.7 201 548.8 201C503 201 457 201 411.2 201C365.3 201 319.7 201 274 201C228.3 201 182.7 201 137 201C91.3 201 45.7 201 22.8 201L0 201Z" fill="#111113"></path><path d="M0 85L22.8 85.5C45.7 86 91.3 87 137 86.7C182.7 86.3 228.3 84.7 274 84.2C319.7 83.7 365.3 84.3 411.2 87.3C457 90.3 503 95.7 548.8 100.5C594.7 105.3 640.3 109.7 686 112C731.7 114.3 777.3 114.7 823 110C868.7 105.3 914.3 95.7 937.2 90.8L960 86L960 201L937.2 201C914.3 201 868.7 201 823 201C777.3 201 731.7 201 686 201C640.3 201 594.7 201 548.8 201C503 201 457 201 411.2 201C365.3 201 319.7 201 274 201C228.3 201 182.7 201 137 201C91.3 201 45.7 201 22.8 201L0 201Z" fill="#24394a"></path><path d="M0 129L22.8 127.8C45.7 126.7 91.3 124.3 137 125.5C182.7 126.7 228.3 131.3 274 132.7C319.7 134 365.3 132 411.2 127.5C457 123 503 116 548.8 111.7C594.7 107.3 640.3 105.7 686 108.8C731.7 112 777.3 120 823 124C868.7 128 914.3 128 937.2 128L960 128L960 201L937.2 201C914.3 201 868.7 201 823 201C777.3 201 731.7 201 686 201C640.3 201 594.7 201 548.8 201C503 201 457 201 411.2 201C365.3 201 319.7 201 274 201C228.3 201 182.7 201 137 201C91.3 201 45.7 201 22.8 201L0 201Z" fill="#006a7d"></path><path d="M0 132L22.8 132.7C45.7 133.3 91.3 134.7 137 136.7C182.7 138.7 228.3 141.3 274 143.3C319.7 145.3 365.3 146.7 411.2 148.3C457 150 503 152 548.8 152.5C594.7 153 640.3 152 686 149.8C731.7 147.7 777.3 144.3 823 142.8C868.7 141.3 914.3 141.7 937.2 141.8L960 142L960 201L937.2 201C914.3 201 868.7 201 823 201C777.3 201 731.7 201 686 201C640.3 201 594.7 201 548.8 201C503 201 457 201 411.2 201C365.3 201 319.7 201 274 201C228.3 201 182.7 201 137 201C91.3 201 45.7 201 22.8 201L0 201Z" fill="#009f8f"></path><path d="M0 166L22.8 164.8C45.7 163.7 91.3 161.3 137 162.7C182.7 164 228.3 169 274 167.5C319.7 166 365.3 158 411.2 159C457 160 503 170 548.8 174.7C594.7 179.3 640.3 178.7 686 179C731.7 179.3 777.3 180.7 823 180.7C868.7 180.7 914.3 179.3 937.2 178.7L960 178L960 201L937.2 201C914.3 201 868.7 201 823 201C777.3 201 731.7 201 686 201C640.3 201 594.7 201 548.8 201C503 201 457 201 411.2 201C365.3 201 319.7 201 274 201C228.3 201 182.7 201 137 201C91.3 201 45.7 201 22.8 201L0 201Z" fill="#61ce70"></path></svg>