<svg id="visual" viewBox="0 0 960 200" width="960" height="200" xmlns="http://www.w3.org/2000/svg" xmlns:xlink="http://www.w3.org/1999/xlink" version="1.1"><rect x="0" y="0" width="960" height="200" fill="#111112"></rect><path d="M0 146L22.8 149.2C45.7 152.3 91.3 158.7 137 156.5C182.7 154.3 228.3 143.7 274 141.3C319.7 139 365.3 145 411.2 139.5C457 134 503 117 548.8 110C594.7 103 640.3 106 686 114.7C731.7 123.3 777.3 137.7 823 144C868.7 150.3 914.3 148.7 937.2 147.8L960 147L960 0L937.2 0C914.3 0 868.7 0 823 0C777.3 0 731.7 0 686 0C640.3 0 594.7 0 548.8 0C503 0 457 0 411.2 0C365.3 0 319.7 0 274 0C228.3 0 182.7 0 137 0C91.3 0 45.7 0 22.8 0L0 0Z" fill="#111113"></path><path d="M0 114L22.8 112.7C45.7 111.3 91.3 108.7 137 108.7C182.7 108.7 228.3 111.3 274 116.3C319.7 121.3 365.3 128.7 411.2 132.3C457 136 503 136 548.8 135.5C594.7 135 640.3 134 686 129.2C731.7 124.3 777.3 115.7 823 108.5C868.7 101.3 914.3 95.7 937.2 92.8L960 90L960 0L937.2 0C914.3 0 868.7 0 823 0C777.3 0 731.7 0 686 0C640.3 0 594.7 0 548.8 0C503 0 457 0 411.2 0C365.3 0 319.7 0 274 0C228.3 0 182.7 0 137 0C91.3 0 45.7 0 22.8 0L0 0Z" fill="#24394a"></path><path d="M0 80L22.8 78C45.7 76 91.3 72 137 76C182.7 80 228.3 92 274 91.2C319.7 90.3 365.3 76.7 411.2 72C457 67.3 503 71.7 548.8 76.5C594.7 81.3 640.3 86.7 686 86.8C731.7 87 777.3 82 823 78.7C868.7 75.3 914.3 73.7 937.2 72.8L960 72L960 0L937.2 0C914.3 0 868.7 0 823 0C777.3 0 731.7 0 686 0C640.3 0 594.7 0 548.8 0C503 0 457 0 411.2 0C365.3 0 319.7 0 274 0C228.3 0 182.7 0 137 0C91.3 0 45.7 0 22.8 0L0 0Z" fill="#006a7d"></path><path d="M0 75L22.8 74.7C45.7 74.3 91.3 73.7 137 73.2C182.7 72.7 228.3 72.3 274 68C319.7 63.7 365.3 55.3 411.2 51.2C457 47 503 47 548.8 50.8C594.7 54.7 640.3 62.3 686 65C731.7 67.7 777.3 65.3 823 64.3C868.7 63.3 914.3 63.7 937.2 63.8L960 64L960 0L937.2 0C914.3 0 868.7 0 823 0C777.3 0 731.7 0 686 0C640.3 0 594.7 0 548.8 0C503 0 457 0 411.2 0C365.3 0 319.7 0 274 0C228.3 0 182.7 0 137 0C91.3 0 45.7 0 22.8 0L0 0Z" fill="#009f8f"></path><path d="M0 38L22.8 39C45.7 40 91.3 42 137 39.8C182.7 37.7 228.3 31.3 274 30.8C319.7 30.3 365.3 35.7 411.2 36.3C457 37 503 33 548.8 31C594.7 29 640.3 29 686 31.7C731.7 34.3 777.3 39.7 823 37.8C868.7 36 914.3 27 937.2 22.5L960 18L960 0L937.2 0C914.3 0 868.7 0 823 0C777.3 0 731.7 0 686 0C640.3 0 594.7 0 548.8 0C503 0 457 0 411.2 0C365.3 0 319.7 0 274 0C228.3 0 182.7 0 137 0C91.3 0 45.7 0 22.8 0L0 0Z" fill="#61ce70"></path></svg>